<?xml version="1.0" encoding="UTF-8" standalone="no"?>
<!-- Created with Inkscape (http://www.inkscape.org/) -->

<svg
   xmlns:dc="http://purl.org/dc/elements/1.1/"
   xmlns:cc="http://creativecommons.org/ns#"
   xmlns:rdf="http://www.w3.org/1999/02/22-rdf-syntax-ns#"
   xmlns:svg="http://www.w3.org/2000/svg"
   xmlns="http://www.w3.org/2000/svg"
   xmlns:sodipodi="http://sodipodi.sourceforge.net/DTD/sodipodi-0.dtd"
   xmlns:inkscape="http://www.inkscape.org/namespaces/inkscape"
   version="1.1"
   width="515.13586"
   height="411.61224"
   id="svg2"
   inkscape:version="0.91 r13725"
   sodipodi:docname="classification.svg">
  <sodipodi:namedview
     pagecolor="#ffffff"
     bordercolor="#666666"
     borderopacity="1"
     objecttolerance="10"
     gridtolerance="10"
     guidetolerance="10"
     inkscape:pageopacity="0"
     inkscape:pageshadow="2"
     inkscape:window-width="1920"
     inkscape:window-height="1017"
     id="namedview34"
     showgrid="false"
     inkscape:zoom="0.81084663"
     inkscape:cx="450.85299"
     inkscape:cy="161.85299"
     inkscape:window-x="-8"
     inkscape:window-y="-8"
     inkscape:window-maximized="1"
     inkscape:current-layer="layer1" />
  <defs
     id="defs4">
    <inkscape:path-effect
       effect="spiro"
       id="path-effect2822" />
  </defs>
  <metadata
     id="metadata7">
    <rdf:RDF>
      <cc:Work
         rdf:about="">
        <dc:format>image/svg+xml</dc:format>
        <dc:type
           rdf:resource="http://purl.org/dc/dcmitype/StillImage" />
        <dc:title />
      </cc:Work>
    </rdf:RDF>
  </metadata>
  <g
     transform="translate(-73.079261,-22.674867)"
     id="layer1">
    <rect
       width="321.62488"
       height="43.754932"
       ry="0"
       x="211.84854"
       y="94.241386"
       id="rect2985"
       style="fill:#000080;stroke:#ffffff;stroke-width:2.04947352;stroke-miterlimit:4;stroke-dasharray:none" />
    <rect
       width="117.80173"
       height="43.754932"
       ry="0"
       x="211.84854"
       y="206.60352"
       id="rect3781"
       style="fill:#800000;stroke:#ffffff;stroke-width:2;stroke-miterlimit:4;stroke-dasharray:none" />
    <rect
       width="49.364536"
       height="43.754932"
       ry="0"
       x="211.84854"
       y="318.96555"
       id="rect3783"
       style="fill:#008000;stroke:#ffffff;stroke-width:2;stroke-miterlimit:4;stroke-dasharray:none" />
    <g
       transform="matrix(0.92500327,0,0,0.92500327,9.8156481,8.7085343)"
       id="g3963">
      <path
         d="m 227.75002,402.76974 a 77.412567,77.412567 0 1 1 -154.825139,0 77.412567,77.412567 0 1 1 154.825139,0 z"
         transform="matrix(0.2214657,0,0,0.2214657,80.274734,7.225734)"
         id="path3807"
         style="fill:none;stroke:#ffffff;stroke-width:9.07868576;stroke-linecap:round;stroke-linejoin:round;stroke-miterlimit:4;stroke-opacity:1;stroke-dasharray:none;stroke-dashoffset:0" />
      <path
         d="m 227.75002,402.76974 a 77.412567,77.412567 0 1 1 -154.825139,0 77.412567,77.412567 0 1 1 154.825139,0 z"
         transform="matrix(0.2214657,0,0,0.2214657,114.89812,7.225734)"
         id="path3809"
         style="fill:none;stroke:#ffffff;stroke-width:9.07868576;stroke-linecap:round;stroke-linejoin:round;stroke-miterlimit:4;stroke-opacity:1;stroke-dasharray:none;stroke-dashoffset:0" />
      <path
         d="m 227.75002,402.76974 a 77.412567,77.412567 0 1 1 -154.825139,0 77.412567,77.412567 0 1 1 154.825139,0 z"
         transform="matrix(0.2214657,0,0,0.2214657,80.274734,46.612604)"
         id="path3801"
         style="fill:none;stroke:#ffffff;stroke-width:9.07868576;stroke-linecap:round;stroke-linejoin:round;stroke-miterlimit:4;stroke-opacity:1;stroke-dasharray:none;stroke-dashoffset:0" />
      <path
         d="m 227.75002,402.76974 a 77.412567,77.412567 0 1 1 -154.825139,0 77.412567,77.412567 0 1 1 154.825139,0 z"
         transform="matrix(0.2214657,0,0,0.2214657,114.89812,46.612604)"
         id="path3803"
         style="fill:none;stroke:#ffffff;stroke-width:9.07868576;stroke-linecap:round;stroke-linejoin:round;stroke-miterlimit:4;stroke-opacity:1;stroke-dasharray:none;stroke-dashoffset:0" />
      <path
         d="m 163.80051,407.25745 c -27.38149,3.1882 -7.26156,-20.06254 -34.78187,-18.4678 -17.05628,0.98837 -1.9303,34.88995 -12.12665,21.18126 -16.45181,-22.11896 13.74389,-16.31996 -1.39735,-39.35588 -9.3841,-14.27699 -31.180743,15.77328 -24.406844,0.0886 10.929684,-25.30717 21.005454,3.74257 33.384524,-20.88808 7.67218,-15.26537 -29.25044,-19.11668 -12.28019,-21.09263 27.38149,-3.1882 7.26156,20.06254 34.78187,18.4678 17.05629,-0.98837 1.93031,-34.88995 12.12666,-21.18126 16.45181,22.11896 -13.74389,16.31996 1.39735,39.35588 9.3841,14.27699 31.18074,-15.77328 24.40684,-0.0886 -10.92968,25.30717 -21.00545,-3.74257 -33.38452,20.88808 -7.67219,15.26537 29.25044,19.11667 12.28018,21.09263 z"
         transform="matrix(0.3123729,0,0,0.3123729,70.463012,20.862121)"
         id="path3868"
         style="fill:#ffffff;fill-opacity:1;stroke:#ffffff" />
      <rect
         width="19.101007"
         height="19.101007"
         x="165.38141"
         y="-19.712305"
         transform="matrix(0.70710678,0.70710678,-0.70710678,0.70710678,0,0)"
         id="rect3785"
         style="fill:none;stroke:#ffffff;stroke-width:4.40308571;stroke-miterlimit:4;stroke-opacity:1;stroke-dasharray:none" />
      <path
         d="m 163.80051,407.25745 c -27.38149,3.1882 -7.26156,-20.06254 -34.78187,-18.4678 -17.05628,0.98837 -1.9303,34.88995 -12.12665,21.18126 -16.45181,-22.11896 13.74389,-16.31996 -1.39735,-39.35588 -9.3841,-14.27699 -31.180743,15.77328 -24.406844,0.0886 10.929684,-25.30717 21.005454,3.74257 33.384524,-20.88808 7.67218,-15.26537 -29.25044,-19.11668 -12.28019,-21.09263 27.38149,-3.1882 7.26156,20.06254 34.78187,18.4678 17.05629,-0.98837 1.93031,-34.88995 12.12666,-21.18126 16.45181,22.11896 -13.74389,16.31996 1.39735,39.35588 9.3841,14.27699 31.18074,-15.77328 24.40684,-0.0886 -10.92968,25.30717 -21.00545,-3.74257 -33.38452,20.88808 -7.67219,15.26537 29.25044,19.11667 12.28018,21.09263 z"
         transform="matrix(0.3123729,0,0,0.3123729,70.463012,-18.524748)"
         id="path3900"
         style="fill:#ffffff;fill-opacity:1;stroke:#ffffff" />
      <path
         d="m 163.80051,407.25745 c -27.38149,3.1882 -7.26156,-20.06254 -34.78187,-18.4678 -17.05628,0.98837 -1.9303,34.88995 -12.12665,21.18126 -16.45181,-22.11896 13.74389,-16.31996 -1.39735,-39.35588 -9.3841,-14.27699 -31.180743,15.77328 -24.406844,0.0886 10.929684,-25.30717 21.005454,3.74257 33.384524,-20.88808 7.67218,-15.26537 -29.25044,-19.11668 -12.28019,-21.09263 27.38149,-3.1882 7.26156,20.06254 34.78187,18.4678 17.05629,-0.98837 1.93031,-34.88995 12.12666,-21.18126 16.45181,22.11896 -13.74389,16.31996 1.39735,39.35588 9.3841,14.27699 31.18074,-15.77328 24.40684,-0.0886 -10.92968,25.30717 -21.00545,-3.74257 -33.38452,20.88808 -7.67219,15.26537 29.25044,19.11667 12.28018,21.09263 z"
         transform="matrix(0.3123729,0,0,0.3123729,105.0864,-18.524748)"
         id="path3902"
         style="fill:#ffffff;fill-opacity:1;stroke:#ffffff" />
      <path
         d="m 163.80051,407.25745 c -27.38149,3.1882 -7.26156,-20.06254 -34.78187,-18.4678 -17.05628,0.98837 -1.9303,34.88995 -12.12665,21.18126 -16.45181,-22.11896 13.74389,-16.31996 -1.39735,-39.35588 -9.3841,-14.27699 -31.180743,15.77328 -24.406844,0.0886 10.929684,-25.30717 21.005454,3.74257 33.384524,-20.88808 7.67218,-15.26537 -29.25044,-19.11668 -12.28019,-21.09263 27.38149,-3.1882 7.26156,20.06254 34.78187,18.4678 17.05629,-0.98837 1.93031,-34.88995 12.12666,-21.18126 16.45181,22.11896 -13.74389,16.31996 1.39735,39.35588 9.3841,14.27699 31.18074,-15.77328 24.40684,-0.0886 -10.92968,25.30717 -21.00545,-3.74257 -33.38452,20.88808 -7.67219,15.26537 29.25044,19.11667 12.28018,21.09263 z"
         transform="matrix(0.3123729,0,0,0.3123729,105.0864,20.862121)"
         id="path3904"
         style="fill:#ffffff;fill-opacity:1;stroke:#ffffff" />
    </g>
    <g
       transform="matrix(0.37820798,0,0,0.37820798,14.689944,36.966305)"
       id="g3956">
      <g
         transform="matrix(1.4177312,0,0,1.2319605,-126.76926,-122.07032)"
         id="g3952">
        <path
           d="m 344.16875,482.60843 a 38.057121,47.985069 0 1 1 -76.11424,0 38.057121,47.985069 0 1 1 76.11424,0 z"
           id="path3928"
           style="fill:#ffffff;fill-opacity:1;stroke:#ffffff;stroke-width:15;stroke-linecap:round;stroke-linejoin:round;stroke-miterlimit:4;stroke-opacity:1;stroke-dasharray:none;stroke-dashoffset:0" />
        <path
           d="m 271.36383,536.66058 a 15.44347,1.6546575 0 1 1 -30.88694,0 15.44347,1.6546575 0 1 1 30.88694,0 z"
           transform="translate(50.191269,2.20621)"
           id="path3930"
           style="fill:#ffffff;fill-opacity:1;stroke:#ffffff;stroke-width:15;stroke-linecap:round;stroke-linejoin:round;stroke-miterlimit:4;stroke-opacity:1;stroke-dasharray:none;stroke-dashoffset:0" />
      </g>
      <path
         d="m 281.71042,526.18109 53.21488,0 -17.73829,56.55251 -17.73829,0 z"
         id="path3948"
         style="fill:none;stroke:#ffffff;stroke-width:3.88269377;stroke-linecap:butt;stroke-linejoin:miter;stroke-miterlimit:4;stroke-opacity:1;stroke-dasharray:none" />
      <rect
         width="36.54985"
         height="29.783834"
         x="290.93982"
         y="577.40845"
         id="rect3950"
         style="fill:#ffffff;fill-opacity:1;stroke:#ffffff;stroke-width:4.19812584;stroke-linecap:round;stroke-linejoin:round;stroke-miterlimit:4;stroke-opacity:1;stroke-dasharray:none;stroke-dashoffset:0" />
    </g>
    <path
       d="m 183.11543,48.674867 0,359.612233"
       id="path3974"
       style="fill:none;stroke:#ffffff;stroke-width:2;stroke-linecap:butt;stroke-linejoin:miter;stroke-miterlimit:4;stroke-opacity:1;stroke-dasharray:none" />
    <path
       d="m 103.9399,318.40112 c 0.25222,-0.43634 0.59632,-0.81928 1.00329,-1.11656 0.72776,-0.53161 1.62627,-0.77552 2.39495,-1.24602 0.68471,-0.4191 1.25227,-1.01095 1.7153,-1.66675 0.38883,-0.55072 0.71101,-1.15231 1.16511,-1.65058 0.42548,-0.46688 0.9586,-0.83097 1.53729,-1.0842 0.44751,-0.19582 0.92328,-0.32676 1.40785,-0.38837 0.50412,-0.0641 1.01574,-0.0533 1.52111,0 0.68588,0.0723 1.36215,0.22258 2.02276,0.42074 0.61318,0.18393 1.22094,0.41291 1.74767,0.77674 0.83075,0.57383 1.40397,1.4405 2.10367,2.1684 0.77548,0.80674 1.71294,1.44825 2.45967,2.28167 0.33826,0.37753 0.63475,0.7919 0.89002,1.22984 0.29689,0.50934 0.53784,1.04983 0.74437,1.60202 0.20111,0.5377 0.37026,1.08818 0.48546,1.65058 0.14546,0.71011 0.20417,1.43475 0.30746,2.15221 0.11919,0.8279 0.29849,1.65747 0.24274,2.49204 -0.0512,0.76659 -0.2987,1.50405 -0.48546,2.24931 -0.19317,0.77083 -0.32233,1.55599 -0.47785,2.33529 -0.01,0.0478 -0.0192,0.0959 -0.0205,0.14464 -0.001,0.0487 0.006,0.0987 0.0295,0.14157 0.0193,0.0357 0.049,0.0655 0.0839,0.0864 0.0348,0.0209 0.0747,0.033 0.1151,0.0369 0.0809,0.008 0.16234,-0.0176 0.2326,-0.0583 0.14052,-0.0816 0.23773,-0.22 0.36318,-0.32326 0.15509,-0.12765 0.35025,-0.19845 0.54759,-0.23591 0.19734,-0.0375 0.39903,-0.0437 0.59952,-0.056 0.60441,-0.0369 1.21221,-0.12887 1.81239,-0.0485 0.66038,0.0884 1.28297,0.38245 1.94655,0.44235 0.75439,0.0681 1.49782,-0.17006 2.24461,-0.29671 1.0557,-0.17904 2.13561,-0.13545 3.20405,-0.0647 1.33424,0.0883 2.67321,0.21953 3.96461,0.56637 0.72382,0.1944 1.4283,0.45547 2.11985,0.74438 0.90346,0.37744 1.80983,0.81959 2.47586,1.5373 0.2238,0.24117 0.42152,0.51417 0.69583,0.69583 0.0889,0.0589 0.18661,0.10883 0.256,0.18981 0.0347,0.0405 0.0616,0.0887 0.0714,0.14113 0.01,0.0524 0.001,0.10917 -0.0285,0.15333 -0.0215,0.0317 -0.0525,0.0555 -0.08,0.0821 -0.0138,0.0133 -0.0268,0.0276 -0.0371,0.0437 -0.0103,0.0161 -0.0179,0.0343 -0.02,0.0533 -0.003,0.0246 0.004,0.0497 0.016,0.0711 0.0123,0.0214 0.0303,0.0393 0.0506,0.0534 0.0406,0.0283 0.0893,0.0417 0.13634,0.057 0.42226,0.13714 0.76146,0.44682 1.10773,0.72469 0.45614,0.36603 0.94611,0.68917 1.39166,1.06802 0.56759,0.48263 1.05801,1.05189 1.48373,1.66332 0.4091,0.58756 0.76112,1.21662 1.21868,1.76728 0.0273,0.0329 0.0556,0.0665 0.0694,0.10694 0.007,0.0202 0.01,0.042 0.007,0.0632 -0.003,0.0212 -0.0124,0.0417 -0.0279,0.0564 -0.0115,0.011 -0.0259,0.0186 -0.041,0.0235 -0.0151,0.005 -0.0309,0.007 -0.0467,0.009 -0.0316,0.003 -0.0642,0.003 -0.0938,0.0149 -0.0392,0.0153 -0.0693,0.0499 -0.0834,0.0895 -0.0142,0.0396 -0.0134,0.0836 -0.002,0.12419 0.022,0.0812 0.0812,0.14617 0.13784,0.20829 0.50566,0.55405 0.96659,1.14939 1.50008,1.6767 0.4716,0.46614 0.99977,0.87907 1.4127,1.39789 0.29614,0.37208 0.53681,0.80197 0.92159,1.08142 0.11151,0.081 0.23419,0.14846 0.33135,0.2462 0.0486,0.0489 0.0904,0.10535 0.11664,0.16906 0.0263,0.0637 0.0363,0.13502 0.0221,0.20244 -0.0146,0.0692 -0.0534,0.13036 -0.089,0.19142 -0.0356,0.0611 -0.0696,0.12632 -0.0728,0.19695 -0.002,0.0432 0.008,0.0865 0.0258,0.12588 0.0179,0.0394 0.0437,0.0748 0.0735,0.10613 0.0597,0.0626 0.1347,0.10794 0.20842,0.15313 0.34876,0.21378 0.68998,0.44009 1.01921,0.68287 0.48947,0.36094 0.95336,0.75887 1.47176,1.07685 0.0929,0.057 0.18896,0.11256 0.26199,0.19342 0.0365,0.0404 0.0668,0.087 0.0847,0.1385 0.0179,0.0515 0.0229,0.10795 0.0101,0.1609 -0.0156,0.0643 -0.0569,0.12073 -0.10943,0.161 -0.0525,0.0403 -0.11556,0.0652 -0.18021,0.0793 -0.12928,0.0281 -0.26355,0.0142 -0.39569,0.021 -0.31706,0.0162 -0.61486,0.1504 -0.90051,0.28894 -0.57738,0.28003 -1.1413,0.58694 -1.7153,0.87384 -0.75168,0.37571 -1.52031,0.71691 -2.29786,1.03565 -0.89276,0.36597 -1.79838,0.70284 -2.67004,1.11656 -1.0289,0.48835 -2.00741,1.08235 -3.05841,1.52112 -0.89243,0.37257 -1.8492,0.63249 -2.81569,0.59873 -0.37795,-0.0132 -0.75654,-0.0711 -1.13274,-0.0324 -0.41575,0.0428 -0.80942,0.20134 -1.21366,0.30747 -0.11084,0.0291 -0.2235,0.0546 -0.32774,0.10217 -0.10424,0.0476 -0.20119,0.12019 -0.25481,0.22147 -0.0487,0.092 -0.0579,0.2017 -0.038,0.30384 0.0199,0.10215 0.0673,0.19734 0.12609,0.28323 0.1175,0.17179 0.27985,0.30917 0.39739,0.48094 0.21009,0.30702 0.25897,0.696 0.25891,1.06802 -1.2e-4,0.71799 -0.15889,1.42505 -0.25891,2.13604 -0.13342,0.94834 -0.16256,1.90774 -0.21037,2.86423 -0.0406,0.81175 -0.0935,1.63722 0.0971,2.42731 0.0912,0.37807 0.23668,0.74046 0.35967,1.10942 0.12299,0.36896 0.2245,0.75096 0.22289,1.13988 -0.001,0.36249 -0.0935,0.7215 -0.24273,1.05184 -0.33107,0.7327 -0.92569,1.30771 -1.5072,1.86295 -0.0688,0.0657 -0.139,0.13237 -0.22414,0.17479 -0.0426,0.0212 -0.0887,0.036 -0.13604,0.0402 -0.0474,0.004 -0.0961,-0.003 -0.1392,-0.0228 -0.0397,-0.0186 -0.0738,-0.048 -0.10084,-0.0826 -0.027,-0.0346 -0.0471,-0.0742 -0.0624,-0.11527 -0.0307,-0.0822 -0.0425,-0.16998 -0.0633,-0.2552 -0.0401,-0.16432 -0.1169,-0.32389 -0.24273,-0.43692 -0.0866,-0.0778 -0.19379,-0.13103 -0.30608,-0.16192 -0.1123,-0.0309 -0.22978,-0.04 -0.34618,-0.0362 -0.23281,0.008 -0.46051,0.0663 -0.69085,0.10103 -0.97315,0.1465 -1.96265,-0.13749 -2.94514,-0.0809 -0.26596,0.0153 -0.54092,0.0596 -0.76056,0.21038 -0.16128,0.11071 -0.28283,0.27235 -0.44597,0.38032 -0.0816,0.054 -0.17452,0.0941 -0.27211,0.10072 -0.0488,0.003 -0.0983,-0.002 -0.14479,-0.0172 -0.0465,-0.0153 -0.0898,-0.0408 -0.12423,-0.0755 -0.046,-0.0463 -0.0752,-0.10789 -0.0877,-0.17198 -0.0125,-0.0641 -0.009,-0.13063 0.005,-0.19452 0.027,-0.12777 0.092,-0.24362 0.14781,-0.36169 0.11589,-0.24522 0.19644,-0.51077 0.35819,-0.72848 0.0678,-0.0913 0.14928,-0.17311 0.20532,-0.2721 0.028,-0.0495 0.0495,-0.1033 0.0575,-0.15961 0.008,-0.0563 0.002,-0.11531 -0.0222,-0.16675 -0.0212,-0.0448 -0.0553,-0.0824 -0.0932,-0.11443 -0.0379,-0.032 -0.0797,-0.0589 -0.12023,-0.0874 -0.0406,-0.0285 -0.0803,-0.059 -0.11253,-0.0967 -0.0322,-0.0377 -0.0567,-0.0833 -0.0626,-0.13254 -0.008,-0.0639 0.0172,-0.12839 0.0552,-0.18035 0.038,-0.052 0.0885,-0.0932 0.13917,-0.13296 0.1474,-0.11561 0.30169,-0.22375 0.46928,-0.30746 0.36874,-0.18419 0.78654,-0.24311 1.19748,-0.2751 0.89585,-0.0697 1.80385,-0.0244 2.68622,-0.19419 0.17368,-0.0334 0.34662,-0.0754 0.50983,-0.1435 0.16321,-0.0681 0.31706,-0.16349 0.4375,-0.29301 0.0887,-0.0954 0.15966,-0.21233 0.17702,-0.34143 0.0119,-0.0888 -0.002,-0.17898 -0.0187,-0.267 -0.0169,-0.088 -0.0369,-0.17618 -0.0376,-0.2658 -8.5e-4,-0.10837 0.0267,-0.21525 0.0647,-0.31674 0.038,-0.10149 0.0864,-0.19871 0.12943,-0.29819 0.33019,-0.76385 0.32868,-1.62328 0.46928,-2.44348 0.11066,-0.64555 0.31266,-1.29062 0.24273,-1.94185 -0.0202,-0.18783 -0.0631,-0.37334 -0.12945,-0.5502 -0.10107,-0.26927 -0.25482,-0.515 -0.40456,-0.76056 -0.0956,-0.15674 -0.19028,-0.31492 -0.26094,-0.48435 -0.0707,-0.16944 -0.11691,-0.35162 -0.11124,-0.53511 0.01,-0.31881 0.17284,-0.61118 0.24273,-0.92239 0.058,-0.25824 0.0489,-0.5377 -0.0647,-0.77674 -0.10282,-0.21629 -0.28833,-0.38977 -0.50632,-0.48894 -0.25198,-0.11463 -0.53887,-0.13129 -0.81422,-0.10277 -0.27536,0.0285 -0.54417,0.0999 -0.8155,0.15477 -1.3517,0.27347 -2.74758,0.13637 -4.12643,0.16182 -1.30791,0.0241 -2.64993,0.1916 -3.89988,-0.19419 -0.10229,-0.0316 -0.20459,-0.067 -0.3112,-0.0766 -0.0533,-0.005 -0.10748,-0.003 -0.15967,0.009 -0.0522,0.0119 -0.10238,0.0342 -0.14405,0.0678 -0.0641,0.0517 -0.1052,0.128 -0.12606,0.20768 -0.0208,0.0797 -0.0229,0.16311 -0.0196,0.24542 0.0152,0.3813 0.14058,0.74979 0.29128,1.10038 0.13649,0.31753 0.29629,0.63051 0.35601,0.97093 0.0719,0.40989 -0.007,0.83219 -0.12946,1.22984 -0.24873,0.80616 -0.67397,1.54436 -1.01947,2.31403 -0.35691,0.7951 -0.6293,1.62552 -0.97093,2.42731 -0.0762,0.17881 -0.15598,0.35663 -0.21368,0.54224 -0.0577,0.1856 -0.093,0.38058 -0.0776,0.57433 0.0259,0.32528 0.19338,0.62507 0.40455,0.87383 0.18618,0.21932 0.40886,0.40832 0.57145,0.64566 0.14201,0.2073 0.23482,0.45009 0.25379,0.70065 0.009,0.11962 7.1e-4,0.24341 -0.0485,0.35282 -0.0198,0.0439 -0.0464,0.0867 -0.0497,0.13479 -0.003,0.0383 0.01,0.0758 0.0146,0.11386 0.002,0.019 0.003,0.0385 -0.001,0.0572 -0.004,0.0187 -0.0136,0.0366 -0.0283,0.049 -0.0102,0.009 -0.0227,0.0142 -0.0358,0.0167 -0.0131,0.003 -0.0266,0.002 -0.0396,-7.9e-4 -0.026,-0.006 -0.0492,-0.0207 -0.0687,-0.0387 -0.0391,-0.0361 -0.0658,-0.0848 -0.10837,-0.11677 -0.039,-0.0292 -0.0879,-0.0417 -0.1361,-0.0487 -0.0482,-0.007 -0.0973,-0.009 -0.14454,-0.0208 -0.0901,-0.0222 -0.169,-0.0778 -0.2345,-0.14351 -0.0655,-0.0657 -0.11934,-0.14193 -0.17584,-0.21555 -0.0565,-0.0736 -0.11677,-0.14582 -0.19185,-0.20037 -0.0751,-0.0546 -0.16705,-0.0905 -0.25958,-0.0834 -0.0916,0.007 -0.17658,0.0559 -0.24073,0.12177 -0.0641,0.0658 -0.10941,0.14774 -0.14663,0.23179 -0.0372,0.084 -0.0671,0.17119 -0.10525,0.25483 -0.0381,0.0837 -0.0852,0.16472 -0.15142,0.22847 -0.11197,0.10782 -0.26775,0.15648 -0.4202,0.18688 -0.15244,0.0304 -0.30936,0.0465 -0.45363,0.10441 -0.15218,0.061 -0.2831,0.1659 -0.39871,0.28215 -0.11562,0.11626 -0.21802,0.24489 -0.32948,0.36513 -0.43162,0.46561 -0.98874,0.79492 -1.55454,1.08295 -0.56579,0.28803 -1.15109,0.54291 -1.68188,0.89126 -0.0906,0.0595 -0.18047,0.12209 -0.28134,0.16173 -0.10088,0.0396 -0.216,0.0546 -0.3174,0.0163 -0.051,-0.0193 -0.0972,-0.0517 -0.13156,-0.094 -0.0344,-0.0423 -0.0568,-0.0945 -0.0626,-0.1487 -0.008,-0.0725 0.014,-0.14563 0.0477,-0.2103 0.0337,-0.0647 0.0791,-0.1224 0.12243,-0.18103 0.0434,-0.0586 0.0855,-0.11935 0.1113,-0.18755 0.0259,-0.0682 0.0344,-0.14535 0.01,-0.21404 -0.0134,-0.0376 -0.0363,-0.0714 -0.0644,-0.0997 -0.0281,-0.0283 -0.0614,-0.0511 -0.0969,-0.0694 -0.0709,-0.0366 -0.14951,-0.055 -0.22707,-0.0736 -0.56225,-0.13526 -1.11696,-0.30197 -1.68293,-0.42073 -0.50511,-0.10599 -1.02308,-0.17363 -1.5373,-0.12947 -0.11385,0.01 -0.22763,0.025 -0.34187,0.0224 -0.11424,-0.003 -0.23065,-0.0241 -0.32869,-0.0828 -0.0615,-0.0368 -0.11368,-0.0869 -0.16803,-0.13356 -0.0543,-0.0467 -0.11279,-0.0912 -0.18088,-0.11347 -0.0546,-0.0179 -0.11337,-0.0207 -0.17029,-0.0132 -0.0569,0.007 -0.11215,0.025 -0.16525,0.0468 -0.0667,0.0274 -0.13252,0.0624 -0.20448,0.0673 -0.036,0.002 -0.0731,-0.003 -0.10489,-0.02 -0.0318,-0.017 -0.0579,-0.0461 -0.0671,-0.081 -0.008,-0.0317 -0.002,-0.066 0.0107,-0.096 0.0132,-0.0301 0.0332,-0.0566 0.054,-0.082 0.27372,-0.33456 0.68867,-0.51523 1.09116,-0.67287 0.4472,-0.17515 0.90615,-0.33832 1.3847,-0.37897 0.0446,-0.004 0.0895,-0.007 0.13351,-0.0148 0.044,-0.008 0.0875,-0.0225 0.12477,-0.0474 0.0372,-0.0249 0.0679,-0.0613 0.0802,-0.10441 0.006,-0.0215 0.008,-0.0445 0.003,-0.0665 -0.004,-0.022 -0.014,-0.043 -0.0289,-0.0598 -0.0257,-0.0289 -0.0645,-0.0434 -0.10298,-0.0477 -0.0385,-0.004 -0.0773,4.2e-4 -0.11581,0.004 -0.0385,0.004 -0.0779,0.006 -0.11552,-0.003 -0.0188,-0.004 -0.0371,-0.0118 -0.0531,-0.0226 -0.016,-0.0108 -0.0298,-0.0252 -0.0388,-0.0423 -0.0127,-0.0241 -0.0154,-0.0529 -0.01,-0.0796 0.006,-0.0267 0.019,-0.0514 0.0366,-0.0722 0.0352,-0.0417 0.0851,-0.0675 0.13396,-0.0919 0.16886,-0.0843 0.34057,-0.16379 0.51892,-0.22554 0.40871,-0.14152 0.84596,-0.18741 1.27838,-0.17801 0.50271,0.0109 1.00211,0.095 1.50494,0.0971 0.30229,0.001 0.60395,-0.0272 0.90619,-0.0324 0.22818,-0.004 0.45747,0.005 0.68371,-0.0247 0.22624,-0.0299 0.45328,-0.10243 0.62704,-0.25037 0.14626,-0.12453 0.24648,-0.2953 0.31964,-0.47291 0.0732,-0.17761 0.1217,-0.3642 0.18201,-0.54657 0.2977,-0.90017 0.87339,-1.67654 1.40784,-2.45967 0.46132,-0.67597 0.90213,-1.37723 1.16511,-2.15221 0.1236,-0.36424 0.20725,-0.7508 0.16182,-1.13275 -0.0408,-0.34334 -0.18474,-0.67377 -0.178,-1.01947 0.004,-0.21465 0.0668,-0.42424 0.14686,-0.62343 0.0801,-0.1992 0.17801,-0.39087 0.25769,-0.59023 0.10383,-0.25979 0.17653,-0.53368 0.19449,-0.81288 0.018,-0.27919 -0.0201,-0.56413 -0.12979,-0.8215 -0.0631,-0.14805 -0.14937,-0.28644 -0.19842,-0.43972 -0.0234,-0.0733 -0.0381,-0.14903 -0.0599,-0.22277 -0.0218,-0.0737 -0.0516,-0.14666 -0.10115,-0.20552 -0.0425,-0.0505 -0.0982,-0.0889 -0.15864,-0.11536 -0.0604,-0.0264 -0.12553,-0.0412 -0.19109,-0.0485 -0.13111,-0.0146 -0.26348,5e-5 -0.39539,0.002 -0.41103,0.007 -0.81357,-0.10562 -1.20943,-0.21651 -0.62298,-0.17451 -1.2486,-0.34747 -1.84476,-0.59875 -0.85544,-0.36056 -1.63492,-0.87566 -2.42731,-1.35929 -0.79034,-0.48238 -1.60415,-0.9402 -2.29785,-1.55348 -0.61527,-0.54395 -1.12267,-1.19895 -1.58585,-1.87712 -0.6602,-0.96664 -1.23815,-1.98835 -1.74766,-3.04223 -0.36929,-0.76385 -0.70372,-1.54731 -0.93856,-2.36259 -0.28154,-0.97741 -0.41748,-1.99333 -0.4531,-3.00986 -0.0344,-0.98162 0.0239,-1.96376 0.0647,-2.94514 0.0522,-1.25639 0.0765,-2.5213 0.32364,-3.75424 0.16138,-0.80496 0.41776,-1.59189 0.77674,-2.33022 0.46603,-0.9585 1.10101,-1.82788 1.81239,-2.6215 0.64898,-0.724 1.36734,-1.39366 1.90949,-2.20076 0.43785,-0.65183 0.75184,-1.38198 0.97092,-2.13604 0.13236,-0.45558 0.23085,-0.92111 0.29128,-1.39166 0.0796,-0.61943 0.092,-1.25641 -0.0647,-1.86094 -0.11965,-0.4616 -0.33851,-0.8988 -0.64728,-1.2622 -0.34615,-0.40739 -0.80435,-0.71866 -1.31074,-0.89001 -0.64517,-0.21831 -1.34167,-0.20819 -2.02277,-0.21037 -0.74446,-0.002 -1.48874,-0.0222 -2.23313,-0.0324 -0.51614,-0.007 -1.03915,-0.0104 -1.53729,-0.14564 -0.28982,-0.0787 -0.56661,-0.20103 -0.85765,-0.27509 -0.38416,-0.0978 -0.78591,-0.10939 -1.18129,-0.0809 -0.77444,0.0558 -1.52873,0.26212 -2.28714,0.42854 -0.80793,0.17729 -1.62487,0.30997 -2.43803,0.46147 -0.0826,0.0154 -0.16602,0.0311 -0.25005,0.0286 -0.084,-0.002 -0.16994,-0.0245 -0.23541,-0.0772 -0.0674,-0.0543 -0.10842,-0.13998 -0.10842,-0.22655 0,-0.0866 0.041,-0.17224 0.10842,-0.22654 l -3.7e-4,4e-5"
       id="path2820"
       style="fill:#ffffff;fill-opacity:1;stroke:none" />
    <text
       x="352.9339"
       y="127.37666"
       id="text4031"
       xml:space="preserve"
       style="font-style:normal;font-weight:normal;font-size:40px;line-height:125%;font-family:Sans;letter-spacing:0px;word-spacing:0px;fill:#000000;fill-opacity:1;stroke:none"
       sodipodi:linespacing="125%"><tspan
         x="352.9339"
         y="127.37666"
         id="tspan4033"
         style="font-style:normal;font-variant:normal;font-weight:normal;font-stretch:normal;font-size:32px;font-family:Arial;-inkscape-font-specification:Arial;fill:#ffffff">Rec. UAV</tspan></text>
    <text
       x="351.7464"
       y="239.74661"
       id="text4035"
       xml:space="preserve"
       style="font-size:40px;font-style:normal;font-weight:normal;line-height:125%;letter-spacing:0px;word-spacing:0px;fill:#000000;fill-opacity:1;stroke:none;font-family:Sans"><tspan
         x="351.7464"
         y="239.74661"
         id="tspan4037"
         style="font-size:32px;font-style:normal;font-variant:normal;font-weight:normal;font-stretch:normal;fill:#ffffff;font-family:Arial;-inkscape-font-specification:Arial">Hot Air-Balloon</tspan></text>
    <text
       x="352.60577"
       y="352.29614"
       id="text4039"
       xml:space="preserve"
       style="font-size:40px;font-style:normal;font-weight:normal;line-height:125%;letter-spacing:0px;word-spacing:0px;fill:#000000;fill-opacity:1;stroke:none;font-family:Sans"><tspan
         x="352.60577"
         y="352.29614"
         id="tspan4041"
         style="font-size:32px;font-style:normal;font-variant:normal;font-weight:normal;font-stretch:normal;fill:#ffffff;font-family:Arial;-inkscape-font-specification:Arial">Goose</tspan></text>
  </g>
</svg>
